<svg width="241" height="128" viewBox="0 0 241 128" fill="none" xmlns="http://www.w3.org/2000/svg">
<path d="M92.2678 116.536C99.2471 109.406 109.305 104.934 120.5 104.934C131.695 104.934 141.753 109.406 148.732 116.536" stroke="#B8A973" stroke-width="2" stroke-linecap="round" stroke-linejoin="round"/>
<path d="M81.0494 107.758C90.7927 97.7991 104.861 91.5439 120.5 91.5439C136.139 91.5439 150.207 97.7991 159.951 107.758" stroke="#B8A973" stroke-width="2" stroke-linecap="round" stroke-linejoin="round"/>
<path d="M71.7214 98.5924C83.7705 86.2779 101.161 78.5461 120.5 78.5461C139.839 78.5461 157.23 86.2779 169.279 98.5924" stroke="#B8A973" stroke-width="2" stroke-linecap="round" stroke-linejoin="round"/>
<path d="M103.486 125.314C107.687 121.014 113.755 118.319 120.5 118.319C127.245 118.319 133.313 121.014 137.514 125.314" stroke="#B8A973" stroke-width="2" stroke-linecap="round" stroke-linejoin="round"/>
<path d="M92.2678 40.6804C99.2471 33.5507 109.305 29.0779 120.5 29.0779C131.695 29.0779 141.753 33.5507 148.732 40.6804" stroke="#B8A973" stroke-width="2" stroke-linecap="round" stroke-linejoin="round"/>
<path d="M81.0494 31.9021C90.7927 21.9434 104.861 15.6882 120.5 15.6882C136.139 15.6882 150.207 21.9434 159.951 31.9021" stroke="#B8A973" stroke-width="2" stroke-linecap="round" stroke-linejoin="round"/>
<path d="M71.7214 22.7367C83.7705 10.4222 101.161 2.69043 120.5 2.69043C139.839 2.69043 157.23 10.4222 169.279 22.7367" stroke="#B8A973" stroke-width="2" stroke-linecap="round" stroke-linejoin="round"/>
<path d="M103.486 49.4588C107.687 45.158 113.755 42.4629 120.5 42.4629C127.245 42.4629 133.313 45.158 137.514 49.4588" stroke="#B8A973" stroke-width="2" stroke-linecap="round" stroke-linejoin="round"/>
<path d="M161.306 76.9308C168.286 69.8012 178.344 65.3284 189.539 65.3284C200.733 65.3284 210.792 69.8012 217.771 76.9308" stroke="#B8A973" stroke-width="2" stroke-linecap="round" stroke-linejoin="round"/>
<path d="M150.088 68.1526C159.831 58.1939 173.9 51.9387 189.538 51.9387C205.177 51.9387 219.246 58.1939 228.989 68.1526" stroke="#B8A973" stroke-width="2" stroke-linecap="round" stroke-linejoin="round"/>
<path d="M140.76 58.9872C152.809 46.6727 170.2 38.9409 189.539 38.9409C208.877 38.9409 226.268 46.6727 238.317 58.9872" stroke="#B8A973" stroke-width="2" stroke-linecap="round" stroke-linejoin="round"/>
<path d="M172.525 85.7093C176.726 81.4133 182.793 78.7134 189.539 78.7134C196.284 78.7134 202.351 81.4085 206.552 85.7093" stroke="#B8A973" stroke-width="2" stroke-linecap="round" stroke-linejoin="round"/>
<path d="M23.2292 76.9308C30.2085 69.8012 40.2669 65.3284 51.4614 65.3284C62.656 65.3284 72.7144 69.8012 79.6936 76.9308" stroke="#B8A973" stroke-width="2" stroke-linecap="round" stroke-linejoin="round"/>
<path d="M12.0156 68.1526C21.7589 58.1939 35.8273 51.9387 51.4662 51.9387C67.1052 51.9387 81.1735 58.1939 90.9168 68.1526" stroke="#B8A973" stroke-width="2" stroke-linecap="round" stroke-linejoin="round"/>
<path d="M2.68286 58.9872C14.7319 46.6727 32.1228 38.9409 51.4614 38.9409C70.8001 38.9409 88.191 46.6727 100.24 58.9872" stroke="#B8A973" stroke-width="2" stroke-linecap="round" stroke-linejoin="round"/>
<path d="M34.4476 85.7093C38.6486 81.4133 44.7161 78.7134 51.4614 78.7134C58.2068 78.7134 64.2743 81.4085 68.4752 85.7093" stroke="#B8A973" stroke-width="2" stroke-linecap="round" stroke-linejoin="round"/>
</svg>
