<svg width="150" height="59" viewBox="0 0 150 59" fill="none" xmlns="http://www.w3.org/2000/svg">
<g clip-path="url(#clip0_1_17)">
<path d="M15.9732 21.4885V17.6012C18.3633 17.6778 19.5629 17.9664 19.5629 18.4715C19.5629 18.7511 19.1119 19.0623 18.2055 19.414V21.493H29.3443L31.2338 19.1886C32.014 19.8695 32.8708 20.6858 33.7998 21.6418L33.3083 22.4355H18.8458C18.9946 22.5618 19.3599 22.8504 19.9417 23.3059C23.6441 26.404 28.4379 28.7175 34.332 30.2552C33.6285 30.837 33.0332 31.5766 32.5552 32.483C26.7152 30.368 21.9304 27.2473 18.2055 23.1165V34.0659H15.9777V24.2845C11.698 28.1853 6.56154 31.094 0.568216 33.0061L0 32.2124C6.09254 29.8223 11.0126 26.5618 14.7646 22.431H1.32133L0.983104 21.4885H15.9732ZM9.81751 11.2922L10.1557 12.1625C8.29325 13.7725 6.05195 15.423 3.43184 17.1096C3.40479 18.1153 3.21538 18.6203 2.86363 18.6203C2.43521 18.6203 1.76778 17.6643 0.861343 15.7522C4.2075 14.4444 7.19289 12.9562 9.813 11.2967L9.81751 11.2922ZM1.84896 3.62576C4.16692 4.35632 5.95274 5.29884 7.21093 6.45782C8.09031 7.26505 8.53226 8.00463 8.53226 8.68559C8.53226 9.61909 8.10384 10.0836 7.24701 10.0836C6.74193 10.0836 6.29096 9.68222 5.8896 8.87499C5.08238 7.31465 3.58517 5.81745 1.39799 4.37887L1.84896 3.62576ZM13.6688 4.87042H15.3283C15.7071 3.51302 15.9687 1.88503 16.122 0C18.5121 0.401359 19.7117 0.816247 19.7117 1.24466C19.7117 1.54681 19.2607 1.81288 18.3543 2.03836C17.7725 3.02147 17.1322 3.96398 16.4287 4.87042H20.9248L22.3588 3.28303C23.7704 4.3924 24.4739 5.12296 24.4739 5.47472C24.4739 5.67765 24.3747 5.82647 24.1717 5.92568L23.378 6.37665V18.4625H21.2991V16.803H13.2178V18.6925H11.0667V3.7385C12.0227 4.09025 12.8931 4.46906 13.6733 4.87042H13.6688ZM13.2178 5.81294V10.1918H21.2991V5.81294H13.2178ZM21.2991 15.8559V11.1343H13.2178V15.8559H21.2991ZM24.7354 11.2877C27.6802 12.0678 30.0343 13.0645 31.7975 14.273C32.8032 14.9766 33.3083 15.7071 33.3083 16.4647C33.3083 17.2945 32.9159 17.7094 32.1358 17.7094C31.7344 17.7094 31.2564 17.3937 30.7017 16.7669C29.218 14.9315 27.112 13.3666 24.3972 12.0859L24.7354 11.2922V11.2877ZM24.4694 9.24929C26.8099 7.31014 28.8122 5.12296 30.4717 2.67873C32.235 3.86026 33.1144 4.70357 33.1144 5.20865C33.1144 5.48374 32.8483 5.62353 32.3207 5.62353C32.2711 5.62353 31.9824 5.60099 31.4503 5.54687C29.7637 7.008 27.6216 8.4556 25.0286 9.88966L24.4603 9.24929H24.4694Z" fill="white"/>
<path d="M43.4685 2.94471H68.1273L69.5613 1.28516C71.1487 2.44414 71.9424 3.21078 71.9424 3.58959C71.9424 3.76546 71.8162 3.92781 71.5636 4.08114L70.6933 4.68543V34.0658H68.4655V31.6486H43.0491V34.0658H40.8574V1.70004L41.7278 2.03827C42.0299 2.16454 42.6072 2.46668 43.464 2.94471H43.4685ZM43.0536 3.85115V30.7016H68.47V3.85115H43.0536ZM50.3051 14.7284H61.0291L62.2377 13.4432C63.6492 14.3992 64.3527 15.0441 64.3527 15.3688C64.3527 15.4455 64.276 15.5447 64.1272 15.6709L63.2208 16.2752V20.0498C63.4733 19.7477 63.7349 19.3463 64.0145 18.8412C65.5478 19.671 66.3189 20.3159 66.3189 20.7668C66.3189 21.0194 66.0934 21.1457 65.638 21.1457C65.3854 21.1457 65.1735 21.1321 64.9976 21.1096C64.0415 21.989 62.9096 22.7827 61.5973 23.4907C64.7946 24.6497 66.3956 25.8447 66.3956 27.0804C66.3956 27.8335 66.0664 28.2123 65.4125 28.2123C65.0111 28.2123 64.5196 27.9237 63.9378 27.3419C62.4271 25.7816 60.0595 24.3565 56.8396 23.0758V29.7591H54.8779V22.3588C52.0323 24.6993 48.6591 26.5392 44.7583 27.8741L44.2667 27.0037C48.623 25.2675 52.0729 22.8864 54.6164 19.8649H50.0842V20.9608H48.0052V13.6326C48.8124 13.9843 49.5791 14.3496 50.3096 14.7284H50.3051ZM54.8734 11.5942V8.72608H46.7155L46.3006 7.81964H54.8734V4.72151C57.0651 4.74857 58.161 5.00111 58.161 5.47462C58.161 5.75422 57.719 6.05637 56.8396 6.38106V7.81513H61.7867L63.3741 5.81285C64.2805 6.59302 65.0111 7.32358 65.5658 8.00454L65.2276 8.72157H56.8441V11.5897H63.1125L64.736 9.66409C65.5162 10.2954 66.2693 10.9989 66.9999 11.7791L66.6211 12.5322H45.322L44.8304 11.5897H54.8734V11.5942ZM61.2546 18.9224V15.6755H50.0751V18.9224H61.2546ZM61.2546 19.8649H57.25C57.2229 19.892 57.0877 20.0408 56.8351 20.3159V22.0927C58.0933 22.3723 59.329 22.7105 60.5375 23.1119C61.4665 22.2054 62.2602 21.326 62.9186 20.4692H61.2591V19.8649H61.2546Z" fill="white"/>
<path d="M89.8008 15.7479H90.6305L91.9519 13.4435C92.0015 13.4931 92.0646 13.5698 92.1413 13.669L92.2901 13.8178C94.608 10.4446 96.4299 5.91237 97.7648 0.221191C100.006 0.726272 101.124 1.24037 101.124 1.768C101.124 2.09721 100.597 2.33622 99.5371 2.48504C98.7569 4.803 97.864 6.90449 96.8538 8.78953H101.95C102.982 6.27314 103.812 3.54029 104.444 0.595492C106.707 1.22684 107.844 1.80408 107.844 2.33171C107.844 2.66091 107.339 2.8864 106.333 3.01267C105.4 5.10063 104.317 7.03077 103.086 8.78953H107.506L109.17 6.4851C109.648 7.03978 110.342 7.86956 111.249 8.97893L110.87 9.77263H103.92V15.775H106.563L108.187 13.5111C108.84 14.2146 109.508 15.0219 110.189 15.9283L109.81 16.6814H103.92V23.0265H106.527L108.187 20.7987C109.016 21.7052 109.711 22.5124 110.266 23.2159L109.851 23.9329H103.92V30.6929H107.925L109.851 28.2757C110.68 29.1822 111.397 30.039 112.002 30.8417L111.587 31.6715H96.8944V34.0526H94.7433V12.1222C94.0128 13.1278 93.3949 13.9621 92.8944 14.616C93.1469 14.9452 93.4085 15.3826 93.6881 15.9373L93.3093 16.6544H89.7962V30.5892C89.7962 32.6546 88.6508 33.6873 86.3599 33.6873C86.3103 32.9838 85.8954 32.4652 85.1152 32.1405C84.5605 31.915 83.4782 31.6895 81.8683 31.4595V30.4764C83.3294 30.6253 84.8627 30.7019 86.4771 30.7019C87.2844 30.7019 87.6857 30.3637 87.6857 29.6827V18.58C85.2189 22.9363 81.8683 26.5981 77.6382 29.57L77.0339 28.8169C81.0881 25.3941 84.1817 21.3399 86.3238 16.6589H77.9765L77.6382 15.7524H81.1107V5.02397H78.3147L77.9765 4.08145H90.2111L91.8707 1.66428C92.475 2.19191 93.2281 3.03521 94.1345 4.19419L93.7196 5.02397H89.7917V15.7479H89.8008ZM87.6857 15.7479V5.02397H83.2663V15.7479H87.6857ZM96.8989 9.78165V15.784H101.81V9.78165H96.8989ZM96.8989 16.6904V23.0355H101.81V16.6904H96.8989ZM96.8989 23.942V30.7019H101.81V23.942H96.8989Z" fill="white"/>
<path d="M124.584 13.6329C123.93 15.3195 123.159 16.8573 122.279 18.2417C125.4 19.4007 126.96 20.7581 126.96 22.3185C126.96 23.1979 126.559 23.6398 125.752 23.6398C125.224 23.6398 124.845 23.2745 124.62 22.544C124.241 21.3624 123.312 20.1899 121.824 19.0309C120.34 21.2226 118.676 23.0851 116.841 24.6184L116.124 24.0141C119.849 19.7615 122.442 14.4356 123.903 8.04091C126.167 8.54599 127.303 9.04656 127.303 9.55164C127.303 9.85379 126.762 10.1063 125.679 10.3048C125.531 10.8594 125.278 11.6622 124.926 12.7219H130.252L131.61 11.0985C133.093 12.307 133.837 13.0737 133.837 13.4029C133.837 13.5788 133.711 13.7186 133.459 13.8178L132.629 14.386C131.47 18.6431 130.099 22.0028 128.512 24.4696C125.941 28.4245 122.103 31.5678 116.994 33.9128L116.426 33.083C121.562 30.0886 125.314 26.2599 127.677 21.6014C128.809 19.4097 129.743 16.7536 130.473 13.6329H124.584ZM126.965 5.96647H117.219L116.881 5.02395H126.965V0.527832C129.404 0.55489 130.627 0.81645 130.627 1.32153C130.627 1.62368 130.135 1.95288 129.152 2.30463V5.02395H137.008V0.568419C139.425 0.595477 140.633 0.884094 140.633 1.43878C140.633 1.76799 140.128 2.10621 139.123 2.45796V5.02395H145.202L147.127 2.60678C148.16 3.56283 149.026 4.45574 149.734 5.29002L149.319 5.97098H139.123V9.40734H137.008V5.97098H129.152V8.6903H126.96V5.97098L126.965 5.96647ZM136.706 13.1774V29.5294C136.706 30.1833 136.909 30.5756 137.31 30.7019C137.738 30.8778 139.136 30.968 141.504 30.968C144.399 30.968 146.05 30.6388 146.451 29.9849C146.852 29.3806 147.154 27.7706 147.357 25.1505L148.413 25.4888C148.413 27.4775 148.512 28.7988 148.715 29.4527C148.891 30.03 149.319 30.3231 150 30.3231C150 31.455 149.536 32.1585 148.602 32.4381C147.547 32.7132 145.278 32.853 141.806 32.853C138.131 32.853 136.016 32.7042 135.461 32.402C134.857 32.0503 134.554 31.1935 134.554 29.8361V11.2157C135.335 11.4682 136.164 11.82 137.048 12.271H143.732L145.13 10.5708C146.591 11.7524 147.321 12.4829 147.321 12.7625C147.321 12.9384 147.195 13.1007 146.942 13.2541L146.113 13.7817V23.3737C146.113 25.0603 145.017 25.8811 142.825 25.827C142.825 25.146 142.509 24.6815 141.883 24.429C141.202 24.2035 140.273 24.0006 139.087 23.8247V22.8055C140.268 22.9814 141.477 23.0716 142.712 23.0716C143.569 23.0716 143.998 22.7198 143.998 22.0163V13.1774H136.71H136.706Z" fill="white"/>
<path d="M1.97512 46.9272C1.97512 44.8077 1.90748 44.4288 0.99202 44.3161L0.279495 44.2259C0.121657 44.1132 0.121657 43.7569 0.302043 43.6667C1.55122 43.554 3.08901 43.4863 5.27619 43.4863C6.66065 43.4863 7.97296 43.5991 9.00116 44.1538C10.0699 44.713 10.8501 45.7141 10.8501 47.2744C10.8501 49.394 9.17704 50.5529 8.06315 50.9994C7.95041 51.1347 8.06315 51.3557 8.17589 51.5361C9.96171 54.4132 11.1432 56.199 12.6585 57.4662C13.0373 57.8 13.5965 58.048 14.1963 58.0886C14.309 58.1337 14.3316 58.3096 14.2188 58.3997C14.0204 58.4674 13.6596 58.5125 13.2357 58.5125C11.3417 58.5125 10.2007 57.9533 8.61784 55.703C8.03609 54.8777 7.12514 53.3399 6.43066 52.3343C6.09694 51.8427 5.74068 51.6217 4.84777 51.6217C3.84212 51.6217 3.80153 51.6443 3.80153 52.1133V54.9228C3.80153 57.2633 3.84663 57.5339 5.1409 57.7098L5.6099 57.7774C5.74519 57.8902 5.7001 58.269 5.56481 58.3366C4.55915 58.2915 3.80153 58.269 2.90862 58.269C1.97061 58.269 1.1679 58.2915 0.121657 58.3366C-0.0136327 58.269 -0.0587292 57.9352 0.0765603 57.7774L0.635757 57.7098C1.93003 57.5519 1.97512 57.2633 1.97512 54.9228V46.9182V46.9272ZM3.80604 50.1155C3.80604 50.5169 3.80604 50.7649 3.87369 50.8506C3.94133 50.9182 4.27505 50.9633 5.41148 50.9633C6.2142 50.9633 7.06201 50.8731 7.70689 50.3816C8.31118 49.9126 8.82077 49.1324 8.82077 47.6172C8.82077 45.8539 7.72944 44.1808 5.25364 44.1808C3.86918 44.1808 3.80604 44.271 3.80604 44.8933V50.111V50.1155Z" fill="white"/>
<path d="M22.5844 53.1058C22.4265 52.6143 22.3409 52.5466 21.6689 52.5466H18.3002C17.741 52.5466 17.6102 52.6143 17.4524 53.0833L16.6722 55.4238C16.3385 56.4294 16.1807 57.0292 16.1807 57.2727C16.1807 57.5388 16.2934 57.6741 16.8256 57.7192L17.5606 57.7868C17.7185 57.8996 17.7185 58.2559 17.5155 58.346C16.9338 58.3009 16.2438 58.3009 15.1976 58.2784C14.4625 58.2784 13.6598 58.3235 13.0555 58.346C12.9202 58.2559 12.8751 57.8996 13.0104 57.7868L13.7455 57.7192C14.2821 57.6741 14.7692 57.4306 15.0848 56.6279C15.4862 55.5997 16.1085 54.1521 17.0465 51.6537L19.3194 45.6333C19.6306 44.8306 19.7659 44.4067 19.6982 44.0504C20.2349 43.8926 20.6137 43.4913 20.8572 43.2026C20.9925 43.2026 21.1458 43.2477 21.1909 43.4011C21.4795 44.3842 21.8358 45.4079 22.174 46.391L25.227 55.3561C25.8719 57.2727 26.165 57.6065 27.1211 57.7192L27.7254 57.7868C27.8832 57.8996 27.8381 58.2559 27.7254 58.346C26.8099 58.3009 26.0298 58.2784 25.0286 58.2784C23.9598 58.2784 23.112 58.3235 22.4626 58.346C22.2822 58.2559 22.2597 57.8996 22.4175 57.7868L23.0624 57.7192C23.5314 57.6741 23.8426 57.5388 23.8426 57.3178C23.8426 57.0743 23.7298 56.6685 23.554 56.1363L22.5709 53.1013L22.5844 53.1058ZM18.1694 51.1216C17.9891 51.6357 18.0116 51.6582 18.6384 51.6582H21.3803C22.0252 51.6582 22.0703 51.568 21.8719 50.9683L20.6678 47.3335C20.4874 46.7968 20.289 46.197 20.1537 45.9265H20.1086C20.0409 46.0392 19.82 46.5759 19.5719 47.2433L18.1649 51.1216H18.1694Z" fill="white"/>
<path d="M30.2552 46.905C30.2552 44.5645 30.2101 44.2082 28.9158 44.0955L28.3566 44.0504C28.2213 43.9602 28.2664 43.5589 28.4017 43.4912C29.493 43.5363 30.2101 43.5589 31.2112 43.5589C32.0816 43.5589 32.8392 43.5363 33.7997 43.4912C33.935 43.5589 33.9801 43.9602 33.8448 44.0504L33.4209 44.0955C32.1267 44.2308 32.0816 44.5645 32.0816 46.905V49.471C32.0816 49.8949 32.1267 50.3188 32.3702 50.3188C32.5731 50.3188 32.8392 50.1835 32.9925 50.0753C33.3037 49.8092 33.8854 49.2275 34.1289 49.0065L36.5371 46.6209C36.961 46.2195 38.0523 45.0831 38.2778 44.772C38.3906 44.6141 38.4357 44.5059 38.4357 44.4157C38.4357 44.3255 38.3455 44.2579 38.0568 44.1947L37.4526 44.0594C37.2947 43.9016 37.3173 43.613 37.4977 43.5002C38.2778 43.5453 39.1707 43.5679 39.9509 43.5679C40.7311 43.5679 41.4887 43.5453 42.1606 43.5002C42.3185 43.613 42.341 43.9241 42.2057 44.0594C41.624 44.1045 40.7581 44.3255 40.1313 44.6818C39.509 45.038 38.2598 46.0888 37.0106 47.2703L35.0038 49.1643C34.6926 49.4755 34.4897 49.6785 34.4897 49.8543C34.4897 50.0122 34.625 50.188 34.9136 50.5443C37.0332 52.975 38.7513 54.9818 40.4875 56.8127C41.0242 57.3494 41.5112 57.638 42.2734 57.7282L42.8777 57.7958C43.0355 57.9086 42.9904 58.2874 42.8326 58.355C42.2508 58.3099 41.385 58.2874 40.3342 58.2874C39.4188 58.2874 38.6386 58.3099 37.6149 58.355C37.4571 58.3099 37.3939 57.9311 37.5247 57.7958L38.0388 57.7056C38.35 57.6605 38.5755 57.5929 38.5755 57.4847C38.5755 57.3494 38.4176 57.1735 38.2643 56.9706C37.8404 56.4339 37.2586 55.8341 36.4153 54.8736L34.6295 52.8668C33.3578 51.4417 33.0015 50.9953 32.4649 50.9953C32.1312 50.9953 32.0861 51.2839 32.0861 52.0641V54.9412C32.0861 57.2817 32.1312 57.5974 33.3803 57.7282L33.9846 57.7958C34.1199 57.886 34.0748 58.2874 33.9395 58.355C32.8482 58.3099 32.0906 58.2874 31.2202 58.2874C30.3048 58.2874 29.5471 58.3099 28.6317 58.355C28.4964 58.2874 28.4513 57.9537 28.5866 57.7958L29.033 57.7282C30.2146 57.5478 30.2597 57.2817 30.2597 54.9412V46.914L30.2552 46.905Z" fill="white"/>
<path d="M55.9469 49.155C55.9469 47.7705 55.9018 45.209 55.5229 44.5371C55.3651 44.271 54.9637 44.1132 54.4091 44.0681L53.8499 44.023C53.7146 43.8651 53.7597 43.5765 53.895 43.4863C54.7428 43.5314 55.568 43.554 56.4384 43.554C57.3764 43.554 57.9762 43.5314 58.7789 43.4863C58.9593 43.5991 58.9368 43.8877 58.824 44.023L58.2874 44.0681C57.7282 44.1132 57.3043 44.3116 57.1735 44.6047C56.8623 45.3398 56.8623 47.9058 56.8623 49.155V51.6759C56.8623 53.615 56.5511 55.6669 55.302 57.0063C54.3414 58.0525 52.6909 58.6342 51.0404 58.6342C49.5026 58.6342 47.9648 58.3456 46.8689 57.4076C45.6874 56.4245 45.1282 54.7965 45.1282 52.1449V46.8821C45.1282 44.5641 45.0831 44.1853 43.7888 44.0726L43.2296 44.0275C43.0943 43.9373 43.1394 43.5585 43.2747 43.4908C44.3886 43.5359 45.1462 43.5585 46.0391 43.5585C46.9321 43.5585 47.6897 43.5359 48.781 43.4908C48.9163 43.5585 48.9614 43.9373 48.8261 44.0275L48.2895 44.0726C46.9952 44.1853 46.9501 44.5641 46.9501 46.8821V51.6984C46.9501 55.2881 48.064 57.6511 51.4778 57.6511C54.7112 57.6511 55.9378 55.1077 55.9378 51.721V49.155H55.9469Z" fill="white"/>
<path d="M61.9445 46.905C61.9445 44.5871 61.8994 44.2488 60.5826 44.0955L60.2263 44.0504C60.0911 43.9602 60.1361 43.5589 60.2714 43.4912C61.232 43.5363 61.9896 43.5589 62.9051 43.5589H67.099C68.5286 43.5589 69.8409 43.5589 70.1115 43.4912C70.2468 43.87 70.3776 45.4755 70.4678 46.4586C70.3776 46.5938 70.0213 46.6389 69.9086 46.5037C69.5748 45.4574 69.3719 44.6772 68.2129 44.3841C67.7439 44.2714 67.0314 44.2488 66.0483 44.2488H64.4429C63.7754 44.2488 63.7754 44.2939 63.7754 45.1417V49.6018C63.7754 50.2241 63.8431 50.2241 64.5105 50.2241H65.8048C66.7428 50.2241 67.4328 50.179 67.6988 50.0888C67.9649 49.9986 68.1227 49.8679 68.2355 49.3087L68.4159 48.3932C68.5286 48.2579 68.9074 48.2579 68.9976 48.4157C68.9976 48.9524 68.9074 49.8228 68.9074 50.6661C68.9074 51.4688 68.9976 52.3166 68.9976 52.8081C68.9074 52.966 68.5286 52.966 68.4159 52.8307L68.2174 51.9603C68.1272 51.559 67.9739 51.2253 67.5275 51.1125C67.2163 51.0223 66.6796 50.9998 65.8093 50.9998H64.515C63.8476 50.9998 63.7799 51.0223 63.7799 51.6041V54.7473C63.7799 55.9288 63.8476 56.6864 64.2038 57.0653C64.4699 57.3313 64.9389 57.5794 66.9006 57.5794C68.6188 57.5794 69.2637 57.4892 69.7552 57.2456C70.1566 57.0247 70.7609 56.24 71.3381 55.081C71.496 54.9683 71.8071 55.0359 71.8973 55.2388C71.7395 56.019 71.1848 57.7372 70.8917 58.337C68.8849 58.2919 66.9006 58.2693 64.9164 58.2693H62.9096C61.949 58.2693 61.1914 58.2919 59.8746 58.337C59.7393 58.2693 59.6942 57.9131 59.8295 57.7778L60.5646 57.7101C61.8363 57.5974 61.949 57.2637 61.949 54.9232V46.896L61.9445 46.905Z" fill="white"/>
<path d="M86.9686 54.4857C86.9686 55.1531 86.9686 57.8093 87.0362 58.3866C86.9911 58.5218 86.8558 58.6301 86.6123 58.6301C86.3462 58.2513 85.6968 57.4711 83.7577 55.2614L78.5851 49.3718C77.9808 48.6818 76.4656 46.8509 75.9966 46.3593H75.9515C75.8613 46.6254 75.8387 47.1395 75.8387 47.8069V52.6683C75.8387 53.7146 75.8613 56.6143 76.2401 57.2862C76.3754 57.5297 76.8218 57.665 77.3765 57.7101L78.0665 57.7778C78.2018 57.9581 78.1792 58.2242 78.0214 58.337C77.0158 58.2919 76.2356 58.2693 75.4103 58.2693C74.4723 58.2693 73.8725 58.2919 73.0924 58.337C72.9345 58.2242 72.912 57.913 73.0473 57.7778L73.6516 57.7101C74.1657 57.6425 74.5219 57.5117 74.6347 57.2637C74.9458 56.4609 74.9233 53.7416 74.9233 52.6683V46.224C74.9233 45.6017 74.9007 45.1327 74.4317 44.6186C74.1206 44.3074 73.5839 44.1496 73.0473 44.0819L72.6685 44.0369C72.5332 43.9016 72.5332 43.5678 72.7136 43.4777C73.6516 43.5453 74.8331 43.5453 75.2344 43.5453C75.5907 43.5453 75.9695 43.5228 76.2581 43.4777C76.7046 44.6141 79.3337 47.5589 80.0733 48.3842L82.2379 50.8149C83.7757 52.533 84.8716 53.7822 85.9178 54.851H85.9629C86.0531 54.7383 86.0531 54.382 86.0531 53.913V49.1418C86.0531 48.0955 86.0306 45.1958 85.6066 44.5239C85.4714 44.3255 85.1151 44.1902 84.2222 44.0774L83.8434 44.0323C83.6855 43.8971 83.7081 43.5408 83.8885 43.4731C84.9167 43.5182 85.6743 43.5408 86.5221 43.5408C87.4827 43.5408 88.0599 43.5182 88.8175 43.4731C88.9979 43.5859 88.9979 43.8971 88.8626 44.0323L88.5514 44.0774C87.8389 44.1902 87.3925 44.3661 87.3023 44.5464C86.9235 45.3492 86.9686 48.1136 86.9686 49.1418V54.4722V54.4857Z" fill="white"/>
<path d="M104.029 56.0055C104.029 56.8984 104.164 57.4351 104.565 57.5884C104.633 57.6561 104.633 57.7868 104.543 57.8545C104.277 57.8545 103.875 57.9447 103.451 58.0529C102.27 58.3641 100.664 58.6347 99.4604 58.6347C96.8042 58.6347 94.3735 57.8996 92.6598 56.1589C91.3204 54.8195 90.6079 53.0607 90.6079 51.0945C90.6079 49.1283 91.2302 47.2794 92.6147 45.8092C94.1074 44.2489 96.3171 43.2026 99.6858 43.2026C100.958 43.2026 102.139 43.4462 102.518 43.5363C102.942 43.6265 103.632 43.7799 103.902 43.7348C103.902 44.4698 104.038 45.6288 104.236 46.9682C104.168 47.1486 103.767 47.1666 103.632 47.0358C103.009 44.6277 101.336 43.8701 99.059 43.8701C94.7342 43.8701 92.8357 46.9456 92.8357 50.2918C92.8357 54.576 95.0454 57.9402 99.528 57.9402C100.912 57.9402 101.738 57.6516 101.981 57.2727C102.094 57.1149 102.202 56.7135 102.202 56.001V55.1081C102.202 53.2366 102.135 53.1013 100.755 52.9435L99.7715 52.8307C99.5911 52.7405 99.6137 52.3392 99.7715 52.2715C100.416 52.3166 101.643 52.3392 102.96 52.3392C103.83 52.3392 104.588 52.3166 105.323 52.2715C105.481 52.3617 105.503 52.6955 105.345 52.8307L104.989 52.8758C104.051 52.9886 104.029 53.6109 104.029 54.7473V55.9965V56.0055Z" fill="white"/>
<path d="M115.312 53.1058C115.154 52.6143 115.068 52.5466 114.396 52.5466H111.028C110.468 52.5466 110.338 52.6143 110.18 53.0833L109.4 55.4238C109.066 56.4294 108.908 57.0292 108.908 57.2727C108.908 57.5388 109.021 57.6741 109.553 57.7192L110.288 57.7868C110.446 57.8996 110.446 58.2559 110.243 58.346C109.661 58.3009 108.971 58.3009 107.925 58.2784C107.19 58.2784 106.387 58.3235 105.783 58.346C105.648 58.2559 105.602 57.8996 105.738 57.7868L106.473 57.7192C107.009 57.6741 107.496 57.4306 107.812 56.6279C108.213 55.5997 108.836 54.1521 109.774 51.6537L112.047 45.6333C112.358 44.8306 112.493 44.4067 112.426 44.0504C112.962 43.8926 113.341 43.4913 113.584 43.2026C113.72 43.2026 113.873 43.2477 113.918 43.4011C114.207 44.3842 114.563 45.4079 114.901 46.391L117.954 55.3561C118.599 57.2727 118.892 57.6065 119.848 57.7192L120.448 57.7868C120.606 57.8996 120.561 58.2559 120.448 58.346C119.533 58.3009 118.753 58.2784 117.751 58.2784C116.683 58.2784 115.835 58.3235 115.185 58.346C115.005 58.2559 114.987 57.8996 115.14 57.7868L115.785 57.7192C116.254 57.6741 116.565 57.5388 116.565 57.3178C116.565 57.0743 116.453 56.6685 116.277 56.1363L115.294 53.1013L115.312 53.1058ZM110.897 51.1216C110.716 51.6357 110.739 51.6582 111.366 51.6582H114.108C114.752 51.6582 114.798 51.568 114.599 50.9683L113.395 47.3335C113.215 46.7968 113.016 46.197 112.881 45.9265H112.836C112.768 46.0392 112.547 46.5759 112.299 47.2433L110.892 51.1216H110.897Z" fill="white"/>
<path d="M122.983 46.905C122.983 44.5871 122.938 44.2488 121.621 44.0955L121.265 44.0504C121.129 43.9602 121.174 43.5589 121.31 43.4912C122.27 43.5363 123.028 43.5589 123.943 43.5589H128.137C129.567 43.5589 130.879 43.5589 131.15 43.4912C131.285 43.87 131.416 45.4755 131.506 46.4586C131.416 46.5938 131.06 46.6389 130.947 46.5037C130.613 45.4574 130.41 44.6772 129.251 44.3841C128.782 44.2714 128.07 44.2488 127.087 44.2488H125.481C124.814 44.2488 124.814 44.2939 124.814 45.1417V49.6018C124.814 50.2241 124.881 50.2241 125.549 50.2241H126.843C127.781 50.2241 128.471 50.179 128.737 50.0888C129.003 49.9986 129.161 49.8679 129.274 49.3087L129.454 48.3932C129.567 48.2579 129.946 48.2579 130.036 48.4157C130.036 48.9524 129.946 49.8228 129.946 50.6661C129.946 51.4688 130.036 52.3166 130.036 52.8081C129.946 52.966 129.567 52.966 129.454 52.8307L129.256 51.9603C129.165 51.559 129.012 51.2253 128.566 51.1125C128.255 51.0223 127.718 50.9998 126.848 50.9998H125.553C124.886 50.9998 124.818 51.0223 124.818 51.6041V54.7473C124.818 55.9288 124.886 56.6864 125.242 57.0653C125.508 57.3313 125.977 57.5794 127.939 57.5794C129.657 57.5794 130.302 57.4892 130.793 57.2456C131.195 57.0247 131.799 56.24 132.376 55.081C132.534 54.9683 132.845 55.0359 132.936 55.2388C132.778 56.019 132.223 57.7372 131.934 58.337C129.928 58.2919 127.943 58.2693 125.959 58.2693H123.952C122.992 58.2693 122.234 58.2919 120.917 58.337C120.782 58.2693 120.737 57.9131 120.872 57.7778L121.607 57.7101C122.879 57.5974 122.992 57.2637 122.992 54.9232V46.896L122.983 46.905Z" fill="white"/>
<path d="M148.007 54.4857C148.007 55.1531 148.007 57.8093 148.074 58.3866C148.029 58.5218 147.894 58.6301 147.65 58.6301C147.384 58.2513 146.735 57.4711 144.796 55.2614L139.623 49.3718C139.023 48.6818 137.504 46.8509 137.035 46.3593H136.99C136.899 46.6254 136.877 47.1395 136.877 47.8069V52.6683C136.877 53.7146 136.899 56.6143 137.278 57.2862C137.413 57.5297 137.86 57.665 138.415 57.7101L139.105 57.7778C139.24 57.9581 139.217 58.2242 139.059 58.337C138.054 58.2919 137.274 58.2693 136.448 58.2693C135.51 58.2693 134.911 58.2919 134.13 58.337C133.973 58.2242 133.95 57.913 134.085 57.7778L134.69 57.7101C135.204 57.6425 135.56 57.5117 135.673 57.2637C135.984 56.4609 135.961 53.7416 135.961 52.6683V46.224C135.961 45.6017 135.939 45.1327 135.47 44.6186C135.159 44.3074 134.622 44.1496 134.085 44.0819L133.707 44.0369C133.571 43.9016 133.571 43.5678 133.752 43.4777C134.69 43.5453 135.871 43.5453 136.273 43.5453C136.629 43.5453 137.008 43.5228 137.296 43.4777C137.743 44.6141 140.372 47.5589 141.111 48.3842L143.276 50.8149C144.814 52.533 145.91 53.7822 146.956 54.851H147.001C147.091 54.7383 147.091 54.382 147.091 53.913V49.1418C147.091 48.0955 147.069 45.1958 146.645 44.5239C146.509 44.3255 146.153 44.1902 145.26 44.0774L144.881 44.0323C144.724 43.8971 144.746 43.5408 144.927 43.4731C145.95 43.5182 146.712 43.5408 147.56 43.5408C148.521 43.5408 149.098 43.5182 149.856 43.4731C150.036 43.5859 150.036 43.8971 149.901 44.0323L149.59 44.0774C148.877 44.1902 148.431 44.3661 148.34 44.5464C147.962 45.3492 148.007 48.1136 148.007 49.1418V54.4722V54.4857Z" fill="white"/>
</g>
<defs>
<clipPath id="clip0_1_17">
<rect width="150" height="58.6345" fill="white"/>
</clipPath>
</defs>
</svg>
